<svg width="1923" height="478" viewBox="0 0 1923 478" fill="none" xmlns="http://www.w3.org/2000/svg">
<path d="M262.04 180.203C260.076 183.704 261.186 188.059 264.687 190.108L455.951 300.512C459.452 302.476 463.807 301.366 465.856 297.865C467.82 294.364 466.71 290.01 463.209 287.96L271.945 177.556C268.53 175.592 264.09 176.703 262.04 180.203Z" fill="white"/>
<path d="M20.7179 283.829L286.182 445.293C314.616 462.627 351.076 442.134 351.076 408.833V338.073C351.076 320.614 341.969 304.42 327.051 295.35L201.65 219.106C183.549 208.091 184.232 181.536 202.931 171.546L293.013 123.218C328.705 104.091 350.99 66.8632 350.99 26.3049L20.7179 210.738C-6.52023 225.937 -7.2887 266.751 20.7179 283.743V283.829ZM37.4535 240.623L139.737 183.535C146.1 179.983 154.598 186.805 154.347 194.088C153.749 216.459 164.764 236.781 183.89 248.394L292.818 314.646C307.732 323.717 316.836 339.909 316.836 357.365V408.833C316.836 414.725 311.713 417.457 308.212 417.457C306.76 417.457 305.309 417.031 303.857 416.177L38.3927 254.712C34.6357 252.407 34.1234 248.82 34.1234 246.857C34.1234 245.234 34.6357 242.246 37.3681 240.709L37.4535 240.623Z" fill="url(#paint0_linear_2_53)"/>
<path d="M707.179 194.068L441.714 32.6035C413.281 15.2702 376.821 35.7628 376.821 69.0632V139.824C376.821 157.282 385.927 173.477 400.845 182.547L526.246 258.791C544.348 269.805 543.665 296.36 524.965 306.35L434.883 354.679C399.192 373.805 376.906 411.034 376.906 451.592L707.179 267.158C734.417 251.96 735.185 211.145 707.179 194.153V194.068ZM690.443 237.273L588.16 294.362C581.797 297.913 573.299 291.091 573.55 283.809C574.147 261.438 563.133 241.116 544.006 229.503L435.078 163.251C420.164 154.18 411.061 137.988 411.061 120.532V69.0632C411.061 63.1716 416.184 60.4393 419.684 60.4393C421.136 60.4393 422.588 60.8662 424.039 61.72L689.504 223.185C693.261 225.49 693.773 229.076 693.773 231.04C693.773 232.662 693.261 235.651 690.528 237.188L690.443 237.273Z" fill="url(#paint1_linear_2_53)"/>
<path d="M1790.04 378.72C1762.41 378.72 1738.66 373.068 1718.79 361.763C1699.03 350.344 1683.79 334.471 1673.05 314.145C1662.43 293.704 1657.12 270.009 1657.12 243.059C1657.12 215.996 1662.43 192.301 1673.05 171.974C1683.79 151.534 1699.03 135.661 1718.79 124.356C1738.66 112.937 1762.41 107.227 1790.04 107.227C1817.68 107.227 1841.37 112.937 1861.13 124.356C1881 135.661 1896.24 151.534 1906.86 171.974C1917.6 192.301 1922.97 215.996 1922.97 243.059C1922.97 270.009 1917.6 293.704 1906.86 314.145C1896.24 334.471 1881 350.344 1861.13 361.763C1841.37 373.068 1817.68 378.72 1790.04 378.72ZM1790.56 315.515C1800.61 315.515 1809.12 312.432 1816.08 306.265C1823.05 300.099 1828.36 291.534 1832.01 280.572C1835.78 269.609 1837.66 256.934 1837.66 242.546C1837.66 227.929 1835.78 215.139 1832.01 204.177C1828.36 193.214 1823.05 184.65 1816.08 178.483C1809.12 172.317 1800.61 169.234 1790.56 169.234C1780.17 169.234 1771.37 172.317 1764.18 178.483C1757.1 184.65 1751.68 193.214 1747.91 204.177C1744.25 215.139 1742.43 227.929 1742.43 242.546C1742.43 256.934 1744.25 269.609 1747.91 280.572C1751.68 291.534 1757.1 300.099 1764.18 306.265C1771.37 312.432 1780.17 315.515 1790.56 315.515Z" fill="white"/>
<path d="M1480.4 477.897C1455.39 477.897 1433.98 474.414 1416.16 467.448C1398.35 460.482 1384.36 450.947 1374.2 438.843C1364.03 426.739 1357.93 413.035 1355.87 397.734L1435.18 393.28C1436.66 398.647 1439.4 403.329 1443.4 407.326C1447.51 411.323 1452.82 414.406 1459.33 416.575C1465.95 418.745 1473.72 419.83 1482.62 419.83C1496.67 419.83 1508.26 416.404 1517.4 409.553C1526.65 402.815 1531.27 390.996 1531.27 374.096V327.848H1528.36C1525.05 335.955 1520.02 343.207 1513.28 349.601C1506.55 355.996 1498.15 361.021 1488.11 364.675C1478.17 368.329 1466.75 370.156 1453.85 370.156C1434.66 370.156 1417.08 365.703 1401.09 356.795C1385.22 347.774 1372.49 333.843 1362.89 315.001C1353.41 296.045 1348.68 271.665 1348.68 241.86C1348.68 211.143 1353.59 185.849 1363.41 165.979C1373.23 145.996 1386.07 131.208 1401.95 121.615C1417.93 112.023 1435.12 107.227 1453.5 107.227C1467.32 107.227 1479.14 109.625 1488.96 114.421C1498.9 119.103 1507.06 125.155 1513.46 132.578C1519.85 140 1524.7 147.708 1528.02 155.702H1530.41V110.653H1613.83V374.781C1613.83 397.048 1608.24 415.833 1597.05 431.135C1585.85 446.437 1570.21 458.027 1550.11 465.907C1530.01 473.9 1506.78 477.897 1480.4 477.897ZM1482.97 309.177C1493.13 309.177 1501.81 306.494 1509 301.126C1516.2 295.759 1521.74 288.051 1525.62 278.002C1529.5 267.953 1531.44 255.906 1531.44 241.86C1531.44 227.586 1529.5 215.311 1525.62 205.033C1521.85 194.642 1516.31 186.648 1509 181.053C1501.81 175.457 1493.13 172.66 1482.97 172.66C1472.57 172.66 1463.78 175.514 1456.59 181.224C1449.39 186.934 1443.91 194.984 1440.14 205.376C1436.49 215.653 1434.66 227.815 1434.66 241.86C1434.66 255.906 1436.55 267.953 1440.32 278.002C1444.08 288.051 1449.51 295.759 1456.59 301.126C1463.78 306.494 1472.57 309.177 1482.97 309.177Z" fill="white"/>
<path d="M1135.81 223.704V373.753H1052.05V110.653H1131.69V158.956H1134.61C1140.43 142.855 1150.37 130.237 1164.41 121.102C1178.46 111.852 1195.19 107.227 1214.6 107.227C1233.1 107.227 1249.14 111.395 1262.73 119.731C1276.43 127.953 1287.05 139.487 1294.59 154.332C1302.24 169.063 1306.01 186.306 1305.9 206.061V373.753H1222.14V222.505C1222.25 207.888 1218.54 196.469 1211 188.247C1203.58 180.025 1193.24 175.914 1180 175.914C1171.21 175.914 1163.44 177.855 1156.7 181.738C1150.08 185.506 1144.94 190.93 1141.29 198.01C1137.75 205.09 1135.92 213.655 1135.81 223.704Z" fill="white"/>
<path d="M914.971 373.753V110.653H998.732V373.753H914.971ZM956.937 79.9921C945.175 79.9921 935.069 76.1095 926.619 68.3444C918.168 60.4651 913.943 50.9871 913.943 39.9104C913.943 28.9479 918.168 19.5841 926.619 11.819C935.069 3.93966 945.175 0 956.937 0C968.813 0 978.919 3.93966 987.255 11.819C995.705 19.5841 999.931 28.9479 999.931 39.9104C999.931 50.9871 995.705 60.4651 987.255 68.3444C978.919 76.1095 968.813 79.9921 956.937 79.9921Z" fill="white"/>
<path d="M861.657 22.9528V476.701H777.896V22.9528H861.657Z" fill="white"/>
<defs>
<linearGradient id="paint0_linear_2_53" x1="255.291" y1="105.636" x2="-62.8345" y2="380.779" gradientUnits="userSpaceOnUse">
<stop offset="0.0408841" stop-color="#4FACFE"/>
<stop offset="0.368868" stop-color="#2984F3"/>
<stop offset="0.704965" stop-color="#045DE9"/>
</linearGradient>
<linearGradient id="paint1_linear_2_53" x1="472.605" y1="372.261" x2="790.731" y2="97.1175" gradientUnits="userSpaceOnUse">
<stop offset="0.0408841" stop-color="#4FACFE"/>
<stop offset="0.368868" stop-color="#2984F3"/>
<stop offset="0.704965" stop-color="#045DE9"/>
</linearGradient>
</defs>
</svg>
